<svg xmlns="http://www.w3.org/2000/svg" width="30" height="29.755" viewBox="0 0 30 29.755">
  <g id="Travis-Ci_icon" transform="translate(-0.13 -0.176)">
    <path id="Pfad_359" data-name="Pfad 359" d="M22.943,36.108c-.2-.206-.375-.4-.515-.554-.068.156-.157.361-.276.625h.036c.095,0,.2-.012.3-.015C22.636,36.151,22.789,36.132,22.943,36.108Z" transform="translate(-5.308 -8.439)" fill="none"/>
    <path id="Pfad_360" data-name="Pfad 360" d="M26.622,27.116l-.589.412a.2.2,0,0,1-.137.036L20.033,26.9l-.087-.009-.34-.039a.2.2,0,0,1-.168-.142l-.918-3.02a2.643,2.643,0,0,0-.811,0l-.892,2.933a.2.2,0,0,1-.147.137l-.427.1-5.823,1.3a.241.241,0,0,1-.044,0,.2.2,0,0,1-.115-.036l-.227-.158-.68-.477h0l-.275-.192c.02.062.042.124.063.182h0c.019.057.1.3.255.656a13.1,13.1,0,0,0,1.4,2.5c1.146-.337,2.137-.652,2.454-.752.645-1,1.564-1.982,2.217-2.017.113-.006.231-.009.345-.009a7.912,7.912,0,0,1,.909.056,1.135,1.135,0,0,1-.325-.588,2.787,2.787,0,0,0,1.894.516,3.342,3.342,0,0,0,1.722-.749,1.083,1.083,0,0,1-.467.792,6.348,6.348,0,0,1,1.51-.36.736.736,0,0,1,.534.217c.023.019.047.041.073.061.683.539,1.505,1.192,1.747,1.384.279.031,1.161.132,1.717.184.321.03.611.053.9.053.092,0,.177,0,.257-.009a14.125,14.125,0,0,0,.8-1.868c.06-.172.119-.348.175-.528.039-.137.075-.277.107-.417l-.2.142Z" transform="translate(-1.22 -5.446)" fill="none"/>
    <path id="Pfad_361" data-name="Pfad 361" d="M12,20.42c-1.372.153-2.515.335-3.368.492l.438,3.544,1.5,1.054,4.774-1.061.894-2.946a.2.2,0,0,1,.09-.113.162.162,0,0,1,.046-.02,7.492,7.492,0,0,1,1.057-.212l.875-.529a6.819,6.819,0,0,0,.756-.534c-.345-.006-.692-.011-1.047-.011-1.459,0-2.822.06-4.056.153a20.015,20.015,0,0,0-2.015,1.116l-1.188.793.817-1.172A6.787,6.787,0,0,1,12,20.42Zm.328,3.179a1.56,1.56,0,0,1-.108-.566c-.036-.969.561-1.765,1.18-1.771s1.049.779,1.06,1.749-.5.912-1.124.918c-.063,0-.121,0-.182,0s-.136,0-.2,0a2.766,2.766,0,0,0-1.323.155A.979.979,0,0,1,12.332,23.6Z" transform="translate(-1.908 -4.672)" fill="none"/>
    <path id="Pfad_362" data-name="Pfad 362" d="M22.286,36.684a6.3,6.3,0,0,1-.7.1c-.1,0-.2.013-.3.013h-.157l-.06,0a3.273,3.273,0,0,1-2.1,1.133c-.059.007-.105.015-.171.027a7.178,7.178,0,0,0,2.371.255,9.464,9.464,0,0,0,2.907-.666,2.676,2.676,0,0,1-1.713-.788C22.335,36.732,22.311,36.708,22.286,36.684Z" transform="translate(-4.386 -8.747)" fill="none"/>
    <circle id="Ellipse_1" data-name="Ellipse 1" cx="0.316" cy="0.316" r="0.316" transform="translate(20.566 16.903)" fill="none"/>
    <path id="Pfad_363" data-name="Pfad 363" d="M23.419,6.38H21.682V5.665h-.391V8.971h.59v1.849H18.844V8.971h.59V5.665h-.391V6.38H17.307V3.931h6.112V6.38Z" transform="translate(-4.012 -1.024)" fill="none"/>
    <circle id="Ellipse_2" data-name="Ellipse 2" cx="0.316" cy="0.316" r="0.316" transform="translate(11.33 17.147)" fill="none"/>
    <path id="Pfad_364" data-name="Pfad 364" d="M6.792,26.319l1.011.689c-.018-.059-.034-.117-.052-.176-.012-.043-.025-.084-.038-.126l-.742-.521a.2.2,0,0,1-.084-.138L6.525,23.1l-.19,1.806Z" transform="translate(-1.491 -5.434)" fill="none"/>
    <path id="Pfad_365" data-name="Pfad 365" d="M22.121,21.191l-.115.009a7.239,7.239,0,0,1,1.246.231.2.2,0,0,1,.137.134l.891,2.931,4.768.542,1.517-1.061.43-3.015a50.516,50.516,0,0,0-5.165-.654A18.866,18.866,0,0,1,22.121,21.191ZM27.309,22.8a1.22,1.22,0,0,1-.075.606c.575-.068.705.321.712.345-.417-.2-.873.053-1.7.069-.617.023-1.136.03-1.17-.94s.362-1.775.98-1.8S27.234,21.83,27.309,22.8Z" transform="translate(-4.746 -4.746)" fill="none"/>
    <path id="Pfad_366" data-name="Pfad 366" d="M26.222,23.171c.035.969.553.962,1.17.94.83-.015,1.286-.27,1.7-.069-.007-.023-.137-.412-.712-.345a1.22,1.22,0,0,0,.075-.606c-.076-.969-.639-1.738-1.257-1.716S26.188,22.2,26.222,23.171Zm.921-1.182a.316.316,0,1,1-.31.32A.314.314,0,0,1,27.143,21.989Z" transform="translate(-6.222 -5.058)" fill="#373535"/>
    <path id="Pfad_367" data-name="Pfad 367" d="M14.085,24.375c.064,0,.131,0,.2,0s.119,0,.182,0c.619-.006,1.132.052,1.124-.918S15.149,21.7,14.53,21.7s-1.215.8-1.18,1.771a1.553,1.553,0,0,0,.108.566.982.982,0,0,0-.7.489A2.765,2.765,0,0,1,14.085,24.375Zm.532-2.062a.315.315,0,1,1-.307.324A.316.316,0,0,1,14.616,22.313Z" transform="translate(-3.013 -5.135)" fill="#373535"/>
    <path id="Pfad_368" data-name="Pfad 368" d="M17.309,7.408h1.735V6.692h.391V10h-.59v1.849h3.038V10h-.59V6.692h.391v.716H23.42V4.958H17.309Z" transform="translate(-4.013 -1.304)" fill="#373535"/>
    <path id="Pfad_369" data-name="Pfad 369" d="M30.119,11.28c-.011-.219-.033-.437-.062-.653-.015-.109-.031-.218-.054-.325a3.321,3.321,0,0,0-.078-.334L29.9,9.883l-.06-.048a5.826,5.826,0,0,0-1.092-.655c-.312-.147-.628-.275-.947-.393a13.494,13.494,0,0,0-4.439-6.2,11.59,11.59,0,0,0-14.166,0A13.122,13.122,0,0,0,5.416,7.25h0a14.663,14.663,0,0,0-.657,1.537c-.32.118-.636.246-.948.393a5.8,5.8,0,0,0-1.092.655l-.061.048-.023.085c-.035.121-.058.223-.079.334s-.039.216-.053.325c-.022.155-.036.313-.049.471h.005c-.005.061-.01.121-.013.183a8.376,8.376,0,0,0,.28,2.6c.061.212.13.421.212.629.04.1.084.207.133.311.024.052.051.1.077.155l.043.077c.017.029.028.049.053.086l.043.068.07.036c.074.038.135.066.2.1l.194.088.108.045A16.112,16.112,0,0,0,1.18,18.666L.13,20.321,1.6,19.027a24.4,24.4,0,0,1,3.323-2.305l.029.237.075.6.378,3.068a.209.209,0,0,0,.087.144l.774.544c.014.043.027.086.039.131.018.061.035.122.054.183l.177.533a12.12,12.12,0,0,0,1.6,3.245l-.1.028c-.4-.186-1.809-.838-2.281-1.051l-.988-.443.584.912c.042.066,1.051,1.638,1.873,2.7a4.515,4.515,0,0,0,3.815,2A7.154,7.154,0,0,0,11.8,29.5c.594-.069,1.039-.122,1.378-.166a9.333,9.333,0,0,0,6.576-.013,9.559,9.559,0,0,0,1.644-.812l.03-.007c.813-.2,1.735-.416,2.191-.544.073-.02.165-.042.259-.064a3,3,0,0,0,2.26-1.523c.569-1.142,1.5-2.89,1.508-2.907l.435-.813-.845.368c-.046.02-1.118.487-1.675.779-.019.011-.043.021-.065.032a11.985,11.985,0,0,0,.76-1.943l.306-1.261.88-1.969s.247-2.152.252-2.151l.086-.823c.077-.033.547-.065.639-.1.131-.052.262-.1.393-.159l.193-.088c.068-.032.129-.06.2-.1l.07-.036.044-.068a.905.905,0,0,0,.052-.086l.042-.077c.03-.052.055-.1.078-.155.049-.1.092-.206.135-.311.081-.208.149-.417.21-.629a8.343,8.343,0,0,0,.28-2.6ZM10.034,16.592a20.683,20.683,0,0,1,2.1-1.163c1.287-.1,2.707-.16,4.229-.16.37,0,.733.005,1.092.011a7.01,7.01,0,0,1-.788.556l-.912.552a7.81,7.81,0,0,0-1.1.221.193.193,0,0,0-.048.02.206.206,0,0,0-.094.118l-.932,3.071L8.6,20.925l-1.568-1.1-.456-3.694c.89-.165,2.082-.353,3.511-.513-.153.182-.3.374-.443.578l-.851,1.222Zm6.717,12.853a7.483,7.483,0,0,1-2.471-.265c.068-.014.118-.021.178-.028a3.415,3.415,0,0,0,2.191-1.181l.062,0,.164,0c.108,0,.207-.009.312-.014a6.261,6.261,0,0,0,.732-.105c.026.025.05.05.077.077a2.792,2.792,0,0,0,1.785.821A9.826,9.826,0,0,1,16.751,29.444Zm.074-1.8c.124-.275.217-.49.287-.651.146.162.33.363.537.578-.161.024-.321.045-.478.058-.1,0-.211.016-.309.016Zm-2.442-6.339.445-.1a.207.207,0,0,0,.153-.143l.929-3.057a2.756,2.756,0,0,1,.845,0l.957,3.148a.208.208,0,0,0,.175.148l.355.04.091.01,6.112.7a.207.207,0,0,0,.143-.037l.614-.429.568-.4.21-.148c-.034.146-.072.292-.111.435-.058.188-.121.37-.183.55a14.725,14.725,0,0,1-.838,1.948c-.083.005-.174.009-.268.009-.3,0-.6-.024-.933-.055-.581-.054-1.5-.159-1.79-.192-.252-.2-1.11-.881-1.822-1.443-.027-.021-.052-.044-.077-.064A.768.768,0,0,0,19.4,22a6.609,6.609,0,0,0-1.575.375,1.129,1.129,0,0,0,.487-.826,3.477,3.477,0,0,1-1.8.781,2.906,2.906,0,0,1-1.975-.537,1.181,1.181,0,0,0,.339.613,8.238,8.238,0,0,0-.948-.058c-.12,0-.243,0-.36.009-.681.036-1.639,1.064-2.311,2.1-.331.1-1.364.433-2.559.784a13.637,13.637,0,0,1-1.455-2.6c-.158-.371-.246-.624-.265-.684v0c-.022-.061-.045-.125-.066-.19l.287.2v0l.709.5.237.165a.211.211,0,0,0,.12.038.245.245,0,0,0,.046,0m9.838-5.913a.21.21,0,0,0-.143-.139,7.465,7.465,0,0,0-1.3-.24l.12-.009a19.675,19.675,0,0,0,3.865-.923,52.907,52.907,0,0,1,5.385.682l-.448,3.143-1.581,1.106L19.082,19.8m9.985-7.288c-.055.4-.239,1.193-.239,1.193l-.143.024c-.075-.02-.774-.2-1.978-.425l.112-.025a5.547,5.547,0,0,0,.734-.235,3.421,3.421,0,0,0,.348-.168,1.2,1.2,0,0,0,.3-.232c-1.205.394-3.7.215-5.911-.014a60.54,60.54,0,0,0-6.1-.349,60.8,60.8,0,0,0-6.094.349c-2.214.229-4.7.408-5.91.014a1.21,1.21,0,0,0,.306.232,3.48,3.48,0,0,0,.346.168,5.634,5.634,0,0,0,.735.235c.088.02.177.04.267.056-1.1.208-1.734.374-1.806.393,0,0-.253.041-.309-.153A6.991,6.991,0,0,1,3.5,12.514,8.93,8.93,0,0,1,3.419,11.3c0-.067,0-.2,0-.2,0-.136.01-.273.023-.409.008-.1.378-.424.7-.607.344-.2.706-.381,1.074-.548A14.242,14.242,0,0,1,7.471,8.98c.713-.13,3.261-.468,3.452-.54s1.292-.922,1.484-.992c-.4.067-6,.921-6.25,1,1.816-4.748,5.379-7.06,10.123-7.06S24.587,3.572,26.4,8.321a50.1,50.1,0,0,0-6.125-1c.193.071,1.282.837,1.484.863a45.251,45.251,0,0,1,4.464.87c.376.152.753.309,1.118.481a12,12,0,0,1,1.074.548,1.951,1.951,0,0,1,.7.607c.017.2.025.406.027.609A8.942,8.942,0,0,1,29.067,12.514Z" transform="translate(0 0)" fill="#373535"/>
  </g>
</svg>
